<?xml version="1.0" encoding="UTF-8" standalone="no"?>
<!-- Created with Inkscape (http://www.inkscape.org/) -->

<svg
   width="1024"
   height="1024"
   viewBox="0 0 270.93333 270.93333"
   version="1.1"
   id="svg1"
   inkscape:version="1.4.2 (ebf0e940, 2025-05-08)"
   sodipodi:docname="icon_only.svg"
   xml:space="preserve"
   inkscape:export-filename="icon_16.png"
   inkscape:export-xdpi="1.5"
   inkscape:export-ydpi="1.5"
   xmlns:inkscape="http://www.inkscape.org/namespaces/inkscape"
   xmlns:sodipodi="http://sodipodi.sourceforge.net/DTD/sodipodi-0.dtd"
   xmlns="http://www.w3.org/2000/svg"
   xmlns:svg="http://www.w3.org/2000/svg"><sodipodi:namedview
     id="namedview1"
     pagecolor="#ffffff"
     bordercolor="#000000"
     borderopacity="0.25"
     inkscape:showpageshadow="2"
     inkscape:pageopacity="0.0"
     inkscape:pagecheckerboard="0"
     inkscape:deskcolor="#3f3f3f"
     inkscape:document-units="mm"
     inkscape:zoom="0.50994485"
     inkscape:cx="339.25237"
     inkscape:cy="533.39101"
     inkscape:window-width="1512"
     inkscape:window-height="827"
     inkscape:window-x="0"
     inkscape:window-y="38"
     inkscape:window-maximized="0"
     inkscape:current-layer="layer1" /><defs
     id="defs1"><inkscape:path-effect
       effect="simplify"
       id="path-effect3"
       is_visible="true"
       lpeversion="1.3"
       threshold="0.01"
       steps="12.508475"
       smooth_angles="360"
       helper_size="10"
       simplify_individual_paths="false"
       simplify_just_coalesce="false" /><inkscape:path-effect
       effect="simplify"
       id="path-effect1"
       is_visible="true"
       lpeversion="1.3"
       threshold="0.01"
       steps="12.508475"
       smooth_angles="360"
       helper_size="10"
       simplify_individual_paths="false"
       simplify_just_coalesce="false" /><inkscape:path-effect
       effect="simplify"
       id="path-effect3-0"
       is_visible="true"
       lpeversion="1.3"
       threshold="0.01"
       steps="12.508475"
       smooth_angles="360"
       helper_size="10"
       simplify_individual_paths="false"
       simplify_just_coalesce="false" /></defs><g
     inkscape:label="Layer 1"
     inkscape:groupmode="layer"
     id="layer1"
     style="display:inline"><path
       style="display:inline;opacity:1;fill:#16a34a;fill-opacity:1;stroke:none;stroke-width:2.03698;stroke-dasharray:none;stroke-opacity:1"
       d="m 222.92054,3.6319287 c 0,0 17.77248,52.5546043 10.31161,98.8120013 -5.42187,33.61558 -11.67608,56.61942 -35.6111,84.01598 -9.44304,10.8087 -22.19714,21.20902 -40.67632,28.64317 -64.90957,26.11304 -67.966979,1.10011 -77.39845,37.67759 -1.377804,5.34345 -0.747755,8.92907 -2.136614,10.13885 -4.475373,3.89831 -12.122008,1.50896 -12.350552,0.26592 -0.339436,-1.84615 0.233245,-9.48649 0.857964,-14.19439 0,0 3.724313,-22.76185 12.380852,-46.72273 5.391607,-14.92371 12.792895,-29.19191 22.45694,-44.64785 8.29343,-13.26385 18.97743,-23.53134 27.35348,-31.99629 37.56551,-37.964148 57.13127,-56.060809 71.47315,-71.142224 0,0 -21.36292,14.97242 -31.53323,23.029591 -23.60508,18.700482 -37.98263,24.117573 -69.217041,57.938283 -31.546132,34.15823 -39.657457,77.29994 -39.657457,77.29994 0,0 -12.810036,-16.62118 -17.560327,-38.8248 C 38.904766,161.26417 36.928368,144.92515 43.073277,123.288 58.955831,69.347187 115.04409,46.389366 164.73237,32.113119 203.19874,21.767389 215.90367,13.664015 222.92054,3.6319287 Z"
       id="path10"
       sodipodi:nodetypes="csssssscssscsscsssc"
       inkscape:label="fill" /></g></svg>
